<?xml version="1.0" encoding="utf-8"?>
<!-- Generator: Adobe Illustrator 24.2.0, SVG Export Plug-In . SVG Version: 6.00 Build 0)  -->
<svg version="1.1" id="Capa_1" xmlns="http://www.w3.org/2000/svg" xmlns:xlink="http://www.w3.org/1999/xlink" x="0px" y="0px"
	 viewBox="0 0 67 67" style="enable-background:new 0 0 67 67;" xml:space="preserve">
<style type="text/css">
	.st0{fill-rule:evenodd;clip-rule:evenodd;fill:#046493;}
	.st1{fill:#04A383;}
	.st2{fill-rule:evenodd;clip-rule:evenodd;fill:#04A383;}
	.st3{fill-rule:evenodd;clip-rule:evenodd;fill:#0072AB;}
	.st4{fill:#046493;}
</style>
<g>
	<path class="st0" d="M25,34c0.2,0.2,0.4,0.5,0.5,0.8c0.1,0.4,0.2,0.8,0.2,1.2c0,0.9-0.3,1.6-0.9,2.2c-0.6,0.6-1.3,0.9-2.2,0.9
		c-0.9,0-1.6-0.3-2.2-0.9c-0.6-0.6-0.9-1.3-0.9-2.2c0-0.5,0.1-0.9,0.3-1.4c0.2-0.3,0.4-0.7,0.7-0.9v-3.6c-1.5,0.5-2.9,1.4-3.9,2.7
		c-1.1,1.4-1.8,3.1-1.8,5.1v1.4h-0.5h-0.9v2.3H32v-2.3h-1.4v-1.4c0-1.9-0.7-3.7-1.8-5.1c-1-1.3-2.3-2.2-3.9-2.7C25,30.1,25,34,25,34
		z"/>
	<path class="st0" d="M23.9,33.2v-4.4v-0.6h-2.5v0.6v4.3c0.3-0.1,0.7-0.2,1.1-0.2C23.1,32.9,23.5,33,23.9,33.2z"/>
	<path class="st1" d="M22.6,33.9c1.2,0,2.2,1,2.2,2.2s-1,2.2-2.2,2.2c-1.2,0-2.2-1-2.2-2.2S21.4,33.9,22.6,33.9z"/>
	<path class="st0" d="M39.6,49.8l-1.4,1c0.2,0.1,0.4,0.2,0.7,0.3c0.6,0.3,1.2,0.6,1.8,0.8c0.4,0.2,0.9,0.3,1.3,0.4l3.9-2.9l1.4-1.1
		l1.4,1.1l3.9,2.9c1.1-0.3,2.2-0.7,3.2-1.3c0.2-0.1,0.4-0.2,0.6-0.3l-1.3-1l-1.9-1.4l-5.9-4.4l-5.9,4.4L39.6,49.8L39.6,49.8z"/>
	<path class="st2" d="M40.1,40.6c0.3-1.1,0.4-2.3,0.4-3.5c0-3.3-1.1-6.3-2.9-8.8c0-0.1-0.1-0.1-0.1-0.2c-1-1.4-2.2-2.5-3.5-3.4
		c-1.3-0.9-2.7-1.6-4.2-2.3l-1.9-0.6L26,21.4c-1.3-0.2-2.9-0.2-4.3-0.2c-1,0-1.9-0.8-1.9-1.9v-8.2c0-1,0.8-1.9,1.9-1.9h2.4
		c1,0,1.9,0.8,1.9,1.9l0,5.6c0,2.4,3.5,2.4,3.5,0V9.3c1,0,1.9,0.2,2.5-0.5c1.1-1.1,0.3-3-1.2-3H15c-1.6,0-2.4,1.9-1.2,3
		c0.7,0.7,1.5,0.5,2.5,0.5v11.5c0,1.1,0.5,2.1,1.2,2.8c1.4,1.4,2.9,1.2,4.8,1.2h0.7l1.5,0.1l3.5,0.7c1.5,0.5,2.9,1.2,4.1,2.2
		c0.7,0.5,1.3,1.1,1.9,1.7c0.7,0.8,1.3,1.6,1.7,2.5c3,5.6,0.8,12.7-5.7,16l-1.6,0.7c-5.2,1.9-11.4,1-15.6-2.8
		c-3.6-3.3-5-8.1-3.2-12.7c1-2.6,2.3-3.4,2.6-4.2c0.7-1.9-1.7-3.3-3-1.8l0,0c-2.5,2.8-3.9,6.2-3.9,10c0,8.5,7.2,15,15.7,15.9l3.8,0
		c1.6-0.1,3.4-0.6,4.8-1.1c1.8-0.7,3.4-1.6,4.9-2.7l0.9-0.6l12.1-9l12.2,9c0.9-0.8,1.7-1.6,2.4-2.6c-0.1,0-0.1-0.1-0.2-0.1l-1-0.7
		l-3.5-2.6l-6.9-5.1l-3-2.2l-3,2.2L40.1,40.6L40.1,40.6z"/>
	<path class="st3" d="M37.5,26V9.5c2.3,0.5,4.2,1.9,5.6,3.9c1.6,2.2,2.5,5,2.5,8.2c0,0.5,0.2,1,0.5,1.2c0.3,0.3,0.8,0.5,1.3,0.5
		c0.5,0,0.9-0.2,1.3-0.5c0.3-0.3,0.5-0.7,0.5-1.2c0-3.2,0.9-6.1,2.5-8.2c1.4-2,3.4-3.4,5.7-3.9v7.1v13.9v10.1
		c1.2,0.9,2.4,1.8,3.5,2.7V33.2V16.6V7.5c0-0.4-0.2-0.9-0.5-1.3C60,5.9,59.6,5.7,59,5.7c-2.6,0-5,0.9-7,2.4
		c-1.9,1.4-3.5,3.3-4.7,5.7c-1.2-2.3-2.7-4.3-4.6-5.7c-2.1-1.5-4.5-2.4-7.1-2.4c-0.5,0-1,0.2-1.2,0.5c-0.3,0.3-0.5,0.8-0.5,1.3V23
		c0.3,0.2,0.5,0.4,0.8,0.5c0.7,0.5,1.4,1.1,2,1.7C37,25.5,37.3,25.8,37.5,26z"/>
	<path class="st4" d="M8.2,60.3c0,0.2-0.1,0.3-0.5,0.3H7.1c-0.4,0-0.5,0-0.5-0.3v-0.8H5.1v0.9c0,0.6,0.5,0.9,1.5,0.9h1.6
		c1.1,0,1.6-0.3,1.6-0.9v-1.8c0-0.6-0.5-0.9-1.5-0.9H7c-0.4,0-0.5,0-0.5-0.3v-1.4c0-0.2,0.1-0.3,0.5-0.3h0.7c0.4,0,0.5,0,0.5,0.3
		v0.8h1.5v-0.9c0-0.6-0.5-0.9-1.5-0.9H6.6C5.5,55,5,55.4,5,55.9v1.6c0,0.6,0.4,0.9,1.5,0.9h1.2c0.4,0,0.5,0,0.5,0.3V60.3z
		 M12.6,59.1l0.9-3.3l0.9,3.3H12.6L12.6,59.1z M15,61.3h1.5l-2-6.2h-2.2l-1.8,6.2H12l0.4-1.4h2.2L15,61.3z M21.3,55v4.4L19.1,55
		h-1.6v6.2H19v-4.5l2.2,4.5h1.5V55H21.3z M30.8,59.9l1.4-3.2v4.6h1.3V55h-1.6l-1.8,3.9L28.4,55h-1.6v6.2h1.3v-4.6l1.4,3.2H30.8
		L30.8,59.9z M36.7,59.1l0.9-3.3l0.9,3.3H36.7z M39.1,61.3h1.5l-2-6.2h-2.2l-1.8,6.2h1.5l0.4-1.4h2.2L39.1,61.3L39.1,61.3z
		 M43.1,55.8h1.5c0.4,0,0.5,0,0.5,0.3v1.7c0,0.2-0.1,0.3-0.5,0.3h-1.5V55.8z M45.5,61.3h1.6l-1.6-2.5c0.8-0.1,1.1-0.4,1.1-0.9v-2
		c0-0.6-0.5-0.9-1.5-0.9h-3.4v6.2h1.5v-2.5h0.8L45.5,61.3z M52.3,55h-5v0.7h1.7v5.5h1.5v-5.5h1.7L52.3,55L52.3,55z M53.4,55v6.2h1.5
		V55H53.4z M60.4,55v4.4L58.3,55h-1.6v6.2h1.4v-4.5l2.2,4.5h1.5V55H60.4z"/>
</g>
</svg>
