<?xml version="1.0" encoding="UTF-8"?>
<!DOCTYPE svg PUBLIC "-//W3C//DTD SVG 1.1//EN" "http://www.w3.org/Graphics/SVG/1.1/DTD/svg11.dtd">
<!-- Creator: CorelDRAW 2020 (64-Bit) -->
<svg xmlns="http://www.w3.org/2000/svg" xml:space="preserve" width="270.087mm" height="50.6294mm" version="1.1" style="shape-rendering:geometricPrecision; text-rendering:geometricPrecision; image-rendering:optimizeQuality; fill-rule:evenodd; clip-rule:evenodd"
viewBox="0 0 27008.66 5062.94"
 xmlns:xlink="http://www.w3.org/1999/xlink"
 xmlns:xodm="http://www.corel.com/coreldraw/odm/2003">
 <defs>
  <style type="text/css">
   <![CDATA[
    .fil2 {fill:#04A383}
    .fil3 {fill:#F2F2F2}
    .fil0 {fill:#04A383;fill-rule:nonzero}
    .fil1 {fill:#F2F2F2;fill-rule:nonzero}
   ]]>
  </style>
 </defs>
 <g id="Capa_x0020_1">
  <metadata id="CorelCorpID_0Corel-Layer"/>
  <g id="_2140003264848">
   <path class="fil0" d="M6419.39 1148.37l0 -822.31 -138.18 0 0 908.46 428.7 0 0 -86.15 -290.52 0zm534.34 -230.77l103.64 -521.43 117.84 521.43 -221.48 0zm292.62 316.92l140.22 0 -217.45 -908.46 -221.48 0 -197.11 908.46 140.22 0 46.72 -230.76 256.04 0 52.84 230.76zm282.45 -908.46l0 908.46 400.28 0c107.69,0 160.5,-37.97 160.5,-115.39l0 -277.48c0,-42.37 -28.45,-61.34 -75.17,-67.19 46.72,-2.92 75.17,-29.21 75.17,-71.57l0 -261.43c0,-77.42 -52.81,-115.4 -160.5,-115.4l-400.28 0zm420.56 777.02c0,37.98 -10.11,45.29 -62.95,45.29l-217.42 0 0 -334.47 217.42 0c52.84,0 62.95,7.28 62.95,45.26l0 243.92zm0 -420.63c0,37.95 -10.11,45.26 -62.95,45.26l-217.42 0 0 -315.46 217.42 0c52.84,0 62.95,7.31 62.95,45.26l0 224.94zm733.53 420.63c0,37.98 -10.15,45.29 -62.99,45.29l-125.99 0c-52.81,0 -62.95,-7.31 -62.95,-45.29l0 -645.57c0,-37.95 10.14,-45.26 62.95,-45.26l125.99 0c52.84,0 62.99,7.31 62.99,45.26l0 645.57zm-229.61 -777.02c-107.66,0 -160.5,37.98 -160.5,115.4l0 677.67c0,77.42 52.84,115.39 160.5,115.39l207.25 0c107.72,0 160.5,-37.97 160.5,-115.39l0 -677.67c0,-77.42 -52.78,-115.4 -160.5,-115.4l-207.25 0zm719.3 86.19l188.95 0c52.81,0 62.98,7.31 62.98,45.26l0 265.82c0,37.97 -10.17,45.28 -62.98,45.28l-188.95 0 0 -356.36zm304.77 822.27l150.39 0 -191.02 -381.21c85.34,-7.28 125.97,-45.26 125.97,-113.9l0 -297.95c0,-77.42 -52.84,-115.4 -160.5,-115.4l-367.78 0 0 908.46 138.17 0 0 -379.75 119.88 0 184.89 379.75zm418.59 -316.92l103.64 -521.43 117.83 521.43 -221.47 0zm292.61 316.92l140.19 0 -217.45 -908.46 -221.45 0 -197.1 908.46 140.18 0 46.75 -230.76 256.04 0 52.84 230.76zm725.37 -908.46l-544.55 0 0 86.19 203.17 0 0 822.27 138.18 0 0 -822.27 203.2 0 0 -86.19zm501.88 777.02c0,37.98 -10.15,45.29 -62.96,45.29l-126.02 0c-52.78,0 -62.95,-7.31 -62.95,-45.29l0 -645.57c0,-37.95 10.17,-45.26 62.95,-45.26l126.02 0c52.81,0 62.96,7.31 62.96,45.26l0 645.57zm-229.61 -777.02c-107.66,0 -160.5,37.98 -160.5,115.4l0 677.67c0,77.42 52.84,115.39 160.5,115.39l207.28 0c107.69,0 160.5,-37.97 160.5,-115.39l0 -677.67c0,-77.42 -52.81,-115.4 -160.5,-115.4l-207.28 0zm719.3 86.19l188.95 0c52.84,0 63.01,7.31 63.01,45.26l0 265.82c0,37.97 -10.17,45.28 -63.01,45.28l-188.95 0 0 -356.36zm304.77 822.27l150.39 0 -191.02 -381.21c85.34,-7.28 125.97,-45.26 125.97,-113.9l0 -297.95c0,-77.42 -52.84,-115.4 -160.5,-115.4l-367.75 0 0 908.46 138.14 0 0 -379.75 119.88 0 184.89 379.75zm316.99 -908.46l0 908.46 138.17 0 0 -908.46 -138.17 0zm761.94 777.02c0,37.98 -10.12,45.29 -62.96,45.29l-126.02 0c-52.78,0 -62.95,-7.31 -62.95,-45.29l0 -645.57c0,-37.95 10.17,-45.26 62.95,-45.26l126.02 0c52.84,0 62.96,7.31 62.96,45.26l0 645.57zm-229.61 -777.02c-107.66,0 -160.5,37.98 -160.5,115.4l0 677.67c0,77.42 52.84,115.39 160.5,115.39l207.28 0c107.69,0 160.5,-37.97 160.5,-115.39l0 -677.67c0,-77.42 -52.81,-115.4 -160.5,-115.4l-207.28 0zm973.27 131.45c0,-37.95 10.17,-45.26 62.98,-45.26l126 0c52.84,0 62.98,7.31 62.98,45.26l0 645.57c0,37.98 -10.14,45.29 -62.98,45.29l-126 0c-52.81,0 -62.98,-7.31 -62.98,-45.29l0 -645.57zm396.23 918.69l-132.09 -143.14c85.34,-7.31 125.97,-45.28 125.97,-113.93l0 -677.67c0,-77.42 -52.78,-115.4 -160.5,-115.4l-207.25 0c-107.66,0 -160.5,37.98 -160.5,115.4l0 677.67c0,77.42 52.84,115.39 160.5,115.39l107.69 0 128 141.68 138.18 0zm591.27 -1050.14l0 777.02c0,37.98 -10.17,45.29 -62.95,45.29l-126.03 0c-52.84,0 -62.95,-7.31 -62.95,-45.29l0 -777.02 -138.18 0 0 793.07c0,77.42 52.84,115.39 160.5,115.39l207.28 0c107.66,0 160.5,-37.97 160.5,-115.39l0 -793.07 -138.17 0zm375.91 0l0 908.46 138.15 0 0 -908.46 -138.15 0zm826.96 711.29l176.77 -490.73 0 687.9 119.93 0 0 -908.46 -152.43 0 -219.43 584.23 -217.42 -584.23 -152.37 0 0 908.46 119.87 0 0 -687.9 176.77 490.73 148.31 0zm540.5 -711.29l0 908.46 138.15 0 0 -908.46 -138.15 0zm889.98 268.74l0 -153.34c0,-77.42 -52.84,-115.4 -160.53,-115.4l-197.11 0c-107.66,0 -160.5,37.98 -160.5,115.4l0 679.13c0,77.42 52.84,115.4 160.5,115.4l197.11 0c107.69,0 160.53,-37.98 160.53,-115.4l0 -153.34 -140.22 0 0 137.29c0,37.98 -10.17,45.29 -62.98,45.29l-111.77 0c-52.82,0 -62.99,-7.31 -62.99,-45.29l0 -647.03c0,-37.95 10.17,-45.26 62.99,-45.26l111.77 0c52.81,0 62.98,7.31 62.98,45.26l0 137.29 140.22 0zm572.96 508.28c0,37.98 -10.11,45.29 -62.95,45.29l-126.03 0c-52.78,0 -62.95,-7.31 -62.95,-45.29l0 -645.57c0,-37.95 10.17,-45.26 62.95,-45.26l126.03 0c52.84,0 62.95,7.31 62.95,45.26l0 645.57zm-229.6 -777.02c-107.67,0 -160.51,37.98 -160.51,115.4l0 677.67c0,77.42 52.84,115.39 160.51,115.39l207.28 0c107.69,0 160.5,-37.97 160.5,-115.39l0 -677.67c0,-77.42 -52.81,-115.4 -160.5,-115.4l-207.28 0zm865.58 0l0 908.46 138.17 0 0 -908.46 -138.17 0zm796.5 0l0 679.16 -251.96 -679.16 -162.54 0 0 908.46 128.01 0 0 -703.98 262.1 703.98 152.4 0 0 -908.46 -128.01 0zm682.7 777.02c0,37.98 -10.14,45.29 -62.98,45.29l-91.43 0c-52.84,0 -63.02,-7.31 -63.02,-45.29l0 -124.14 -140.18 0 0 140.19c0,77.42 52.84,115.39 160.53,115.39l176.76 0c107.73,0 160.51,-37.97 160.51,-115.39l0 -280.41c0,-77.42 -52.78,-115.39 -160.51,-115.39l-138.17 0c-52.81,0 -62.99,-7.28 -62.99,-45.26l0 -220.56c0,-37.95 10.18,-45.26 62.99,-45.26l93.47 0c52.84,0 62.98,7.31 62.98,45.26l0 124.17 140.18 0 0 -140.22c0,-77.42 -52.77,-115.4 -160.5,-115.4l-178.8 0c-107.69,0 -160.53,37.98 -160.53,115.4l0 252.66c0,77.42 52.84,115.4 160.53,115.4l138.18 0c52.84,0 62.98,7.3 62.98,45.25l0 248.31zm776.19 -777.02l-544.52 0 0 86.19 203.17 0 0 822.27 138.15 0 0 -822.27 203.2 0 0 -86.19zm260.12 86.19l188.92 0c52.84,0 63.01,7.31 63.01,45.26l0 265.82c0,37.97 -10.17,45.28 -63.01,45.28l-188.92 0 0 -356.36zm304.77 822.27l150.36 0 -190.98 -381.21c85.33,-7.28 125.96,-45.26 125.96,-113.9l0 -297.95c0,-77.42 -52.84,-115.4 -160.5,-115.4l-367.78 0 0 908.46 138.17 0 0 -379.75 119.88 0 184.89 379.75zm680.69 -908.46l0 777.02c0,37.98 -10.17,45.29 -62.98,45.29l-126 0c-52.84,0 -62.95,-7.31 -62.95,-45.29l0 -777.02 -138.18 0 0 793.07c0,77.42 52.84,115.39 160.5,115.39l207.28 0c107.66,0 160.47,-37.97 160.47,-115.39l0 -793.07 -138.14 0zm800.59 711.29l176.76 -490.73 0 687.9 119.9 0 0 -908.46 -152.4 0 -219.43 584.23 -217.45 -584.23 -152.37 0 0 908.46 119.87 0 0 -687.9 176.77 490.73 148.35 0zm660.37 111.02l0 -343.24 272.27 0 0 -86.16 -272.27 0 0 -306.72 333.18 0 0 -86.19 -473.4 0 0 908.46 487.66 0 0 -86.15 -347.44 0zm914.34 -822.31l0 679.16 -251.96 -679.16 -162.54 0 0 908.46 128 0 0 -703.98 262.1 703.98 152.4 0 0 -908.46 -128 0zm794.43 0l-544.51 0 0 86.19 203.14 0 0 822.27 138.17 0 0 -822.27 203.2 0 0 -86.19zm243.86 591.54l103.64 -521.43 117.84 521.43 -221.48 0zm292.59 316.92l140.22 0 -217.46 -908.46 -221.47 0 -197.11 908.46 140.22 0 46.72 -230.76 256.07 0 52.81 230.76zm420.62 -86.15l0 -822.31 -138.17 0 0 908.46 428.69 0 0 -86.15 -290.52 0z"/>
   <path class="fil1" d="M7457.68 4270.26c0,109.82 -29.72,132.69 -172.56,132.69l-249.89 0c-142.8,0 -178.5,-22.87 -178.5,-132.69l0 -356.92 -541.47 0 0 420.99c0,260.8 172.56,402.66 553.35,402.66l577.2 0c386.72,0 559.28,-141.86 559.28,-402.66l0 -823.64c0,-260.82 -166.56,-402.65 -547.41,-402.65l-434.35 0c-142.78,0 -178.51,-22.88 -178.51,-132.7l0 -636.04c0,-109.82 35.73,-132.69 178.51,-132.69l249.91 0c142.78,0 178.51,22.87 178.51,132.69l0 356.91 541.47 0 0 -420.95c0,-260.83 -166.63,-402.66 -553.38,-402.66l-583.11 0c-380.85,0 -553.38,141.83 -553.38,402.66l0 754.99c0,260.82 160.66,407.23 541.47,407.23l440.3 0c142.84,0 172.56,22.87 172.56,132.69l0 700.09zm1576.82 -530.79l309.4 -1509.99 339.15 1509.99 -648.55 0zm868.71 997.52l541.48 0 -708.1 -2864.39 -779.45 0 -660.46 2864.39 535.53 0 136.81 -663.48 785.45 0 148.74 663.48zm2249.22 -2864.39l0 2008.74 -761.64 -2008.74 -565.26 0 0 2864.39 493.87 0 0 -2068.22 785.43 2068.22 541.47 0 0 -2864.39 -493.87 0zm3445.14 2242.09l511.72 -1473.39 0 2095.69 470.08 0 0 -2864.39 -589.07 0 -636.71 1775.35 -636.61 -1775.35 -589.08 0 0 2864.39 470.06 0 0 -2091.12 511.71 1468.82 487.9 0zm2100.44 -375.22l309.4 -1509.99 339.18 1509.99 -648.58 0zm868.75 997.52l541.47 0 -708.09 -2864.39 -779.46 0 -660.49 2864.39 535.53 0 136.84 -663.48 785.42 0 148.78 663.48zm1457.79 -2530.38l523.63 0c142.77,0 178.5,22.87 178.5,132.69l0 777.87c0,109.83 -35.73,132.7 -178.5,132.7l-523.63 0 0 -1043.26zm850.9 2530.38l577.14 0 -589.08 -1166.82c279.71,-36.61 398.7,-169.3 398.7,-398.09l0 -896.82c0,-260.83 -166.62,-402.66 -553.38,-402.66l-1219.78 0 0 2864.39 535.5 0 0 -1157.65 291.55 0 559.35 1157.65zm2475.29 -2864.39l-1785.07 0 0 334.01 624.8 0 0 2530.38 535.47 0 0 -2530.38 624.8 0 0 -334.01zm386.78 0l0 2864.39 535.51 0 0 -2864.39 -535.51 0zm2528.86 0l0 2008.74 -761.63 -2008.74 -565.26 0 0 2864.39 493.87 0 0 -2068.22 785.42 2068.22 541.47 0 0 -2864.39 -493.87 0z"/>
   <path class="fil2" d="M2062.65 2965.64c19.15,23 34.81,48.96 46.14,77.09 13.56,33.66 21.03,70.3 21.03,108.49 0,80.18 -32.54,152.75 -85.14,205.22 -52.3,52.21 -124.32,84.49 -203.63,84.49 -79.31,0 -151.33,-32.28 -203.63,-84.49 -52.6,-52.47 -85.13,-125.04 -85.13,-205.22 0,-45.28 10.39,-88.2 28.93,-126.48 15.51,-32.01 36.81,-60.77 62.53,-84.92l0 -337.36c-143.25,44.14 -268.43,132.28 -360.46,248.93 -101.99,129.27 -163.27,293.73 -163.27,472.26l0 129.95 -47.37 0 -82.84 0 0 214.54 1726.77 0 0 -214.54 -130.2 0 0 -129.95c0,-178.53 -61.27,-342.99 -163.26,-472.26 -92.03,-116.65 -217.22,-204.79 -360.47,-248.93l0 363.18z"/>
   <path class="fil2" d="M1967.87 2890.97l0 -411.53 0 -57.77 -229.33 0 0 57.77 0 400.93c31.88,-12.2 66.44,-18.87 102.51,-18.87 45.45,0 88.5,10.6 126.82,29.47z"/>
   <path class="fil1" d="M1841.05 2949.82c111.47,0 201.83,90.16 201.83,201.39 0,111.23 -90.36,201.4 -201.83,201.4 -111.46,0 -201.83,-90.17 -201.83,-201.4 0,-111.23 90.37,-201.39 201.83,-201.39z"/>
   <path class="fil2" d="M3428.31 4438.95l-126.64 93.68c20.07,11 40.39,21.59 60.91,31.8 55.49,27.56 112.66,52.2 171.13,73.79 39.2,14.41 81.17,27.96 124.75,40.23l361.57 -267.55 134.67 -99.65 133.83 99.01 360.04 266.43c103.55,-29.97 203.45,-69.14 298.17,-116.68 19.3,-9.68 38.4,-19.73 57.28,-30.09l-122.98 -91 -175.7 -130.02 -550.67 -407.46 -551.64 408.22 -172.84 127.86z"/>
   <path class="fil3" d="M3479.23 3581.62c25.12,-103.43 38.68,-211.82 38.83,-324.41 0,-304.04 -100.57,-586.76 -273.13,-822.27 -4.6,-6.28 -9.26,-12.52 -13.92,-18.7 -95.32,-126.24 -204.54,-232.14 -329.46,-321.71 -116.8,-83.75 -247.34,-153.19 -393.1,-211.63l-178.44 -56.99 -172.25 -35.97c-124.54,-23.05 -274.68,-22.08 -398.42,-22.08 -95.54,0 -173.51,-77.99 -173.51,-173.5l0 -766.6c0,-95.51 77.97,-173.51 173.51,-173.51l227.38 0c95.54,0 173.5,78 173.5,173.51l0.13 518.78c0,224.64 329.86,219.56 329.86,0l0 -692.29c95.63,0 174.91,14.16 237.55,-48.48 104.8,-104.86 28.18,-281.5 -116.49,-281.5l-1476.4 0c-144.6,0 -221.32,176.61 -116.46,281.5 62.65,62.64 141.8,48.48 237.43,48.48l0 1070.28c0,102.63 42,195.95 109.7,263.62 131.08,131.08 270.54,109.7 445.66,109.7l61.8 0 140.49 6.55 326.6 68.62c138.3,46.38 270.73,114.3 387.04,202.44 65.23,49.42 123.31,102.69 174.42,158.97 65.75,72.43 119.93,149.82 162.75,230.43 278.73,524.54 77.51,1185.03 -530.11,1494.92l-149.78 65.93c-485.68,180.58 -1067.2,91.34 -1454.78,-260.67 -333.95,-303.27 -466.34,-758.01 -300.63,-1183.9 94.6,-243.1 213.53,-321.49 240.63,-389.19 69.29,-173.11 -160.35,-308.7 -279.31,-167.6l-1.34 1.74c-229.57,258.9 -361.05,582.58 -361.26,932.43 0.79,796.05 674.41,1400.65 1463.76,1479.05l350.64 1.22c149.72,-12.49 315.03,-51.69 448.09,-100.57 164.31,-60.64 318.05,-145.52 454.06,-250.95l80.77 -59.76 1129.66 -835.88 1135.15 839.93c84.06,-72.6 159.95,-153.46 225.89,-241.42 -4.75,-4.32 -9.87,-8.53 -15.35,-12.58l-92.49 -68.43 -329.44 -243.77 -646.85 -478.64 -276.91 -204.91 -276.9 204.91 -398.57 294.9z"/>
   <path class="fil2" d="M3231.01 2215.41l0 -1538.62c211.28,46.32 393.8,176.28 526.43,361.81 144.79,202.32 230.49,470.67 230.49,769.34 0,50.47 17.45,89.03 44.34,116.41 31.59,31.97 75.17,47.14 118.2,47.14 42.91,0 87.93,-15.17 120.67,-47.14 27.77,-27.35 46.2,-65.91 46.2,-116.41 0,-298.1 86.43,-566.01 231.89,-768.24 133.79,-186.12 317.47,-316.53 529.23,-362.91l0 666.83 0 1297.9 0 943.54c113.5,82.87 224.48,166.2 329.44,249.4l0 -949.21 0 -1541.63 0 -855.93c0,-41.91 -15.38,-86.01 -47.97,-117.98 -27.96,-27.32 -67.34,-45.44 -118.84,-45.44 -241.15,0 -464.11,80.79 -655.86,223.97 -173.88,129.89 -321.86,311.13 -434.06,529.71 -108.76,-217.85 -255.25,-398.57 -428.27,-528.28 -192.23,-144.12 -416.87,-225.4 -658.72,-225.4 -50.1,0 -88.66,18.42 -116.1,46.2 -31.31,31.82 -46.53,75.62 -46.53,117.22l0 1451.34c25.7,16.41 50.7,33.34 75.04,50.76 66.67,47.82 130.07,100.87 190.41,159.68 21.92,21.38 43.27,43.34 64.01,65.94z"/>
  </g>
 </g>
</svg>
